<?xml version="1.0" encoding="UTF-8"?>
<svg width="62px" height="62px" viewBox="0 0 62 62" version="1.1" xmlns="http://www.w3.org/2000/svg" xmlns:xlink="http://www.w3.org/1999/xlink">
    <!-- Generator: Sketch 49.2 (51160) - http://www.bohemiancoding.com/sketch -->
    <title>back-button-white</title>
    <desc>Created with Sketch.</desc>
    <defs>
        <path d="M30,0 C13.458,0 0,13.458 0,30 C0,46.542 13.458,60 30,60 C46.542,60 60,46.542 60,30 C60,13.458 46.542,0 30,0 Z M45.563,30.826 L23.563,45.826 C23.394,45.941 23.197,46 23,46 C22.84,46 22.679,45.962 22.533,45.884 C22.205,45.711 22,45.371 22,45 L22,15 C22,14.629 22.205,14.289 22.533,14.116 C22.861,13.942 23.257,13.966 23.564,14.174 L45.564,29.174 C45.836,29.36 46,29.669 46,30 C46,30.331 45.836,30.64 45.563,30.826 Z" id="path-1"></path>
    </defs>
    <g id="Page-1" stroke="none" stroke-width="1" fill="none" fill-rule="evenodd">
        <g id="back-button-white" transform="translate(1.000000, 1.000000)" fill-rule="nonzero">
            <g id="play-button" transform="translate(30.000000, 30.000000) scale(-1, 1) translate(-30.000000, -30.000000) ">
                <g id="Shape">
                    <use fill="#FFFFFF" fill-rule="evenodd" xlink:href="#path-1"></use>
                    <path stroke-opacity="0.2" stroke="#000000" stroke-width="1" d="M30,-0.5 C46.8181424,-0.5 60.5,13.1818576 60.5,30 C60.5,46.8181424 46.8181424,60.5 30,60.5 C13.1818576,60.5 -0.5,46.8181424 -0.5,30 C-0.5,13.1818576 13.1818576,-0.5 30,-0.5 Z M45.2813316,30.4128863 L45.2814725,30.4127903 C45.4181815,30.3196479 45.5,30.1651321 45.5,30 C45.5,29.8348548 45.4181237,29.6799721 45.2823316,29.5871137 L23.2835461,14.5879391 C23.1282106,14.4826955 22.9301516,14.4713144 22.7662621,14.5582542 C22.6023462,14.6447099 22.5,14.8144548 22.5,15 L22.5,45 C22.5,45.1855452 22.6023462,45.3552901 22.7686076,45.4429909 C22.8388024,45.4804922 22.9183537,45.5 23,45.5 C23.0991662,45.5 23.1977094,45.4697887 23.2813316,45.4128863 L45.2813316,30.4128863 Z"></path>
                </g>
            </g>
        </g>
    </g>
</svg>